<svg width="41" height="40" viewBox="0 0 41 40" fill="none" xmlns="http://www.w3.org/2000/svg">
<path d="M25.1437 26.1224L26.8086 15.1702L15.8565 13.5052L15.2737 17.3385L19.6546 18.0045L13.0306 22.8803L15.3524 26.0345L21.9764 21.1588L21.3104 25.5396L25.1437 26.1224ZM32.1091 35.5852C29.9274 37.1911 27.5724 38.2863 25.0441 38.8707C22.5157 39.4552 20.0194 39.5601 17.5552 39.1855C15.091 38.8108 12.7386 37.9688 10.4982 36.6595C8.25776 35.3501 6.33459 33.6045 4.72867 31.4228C3.12275 29.2411 2.02758 26.8861 1.44314 24.3578C0.858707 21.8294 0.753796 19.3332 1.12841 16.8689C1.50302 14.4047 2.34502 12.0523 3.6544 9.81191C4.96378 7.57148 6.70932 5.64831 8.89103 4.04239C11.0727 2.43647 13.4278 1.34129 15.9561 0.75686C18.4844 0.172425 20.9807 0.0675144 23.4449 0.442128C25.9092 0.81674 28.2615 1.65874 30.502 2.96811C32.7424 4.27749 34.6656 6.02304 36.2715 8.20475C37.8774 10.3865 38.9726 12.7415 39.557 15.2698C40.1414 17.7981 40.2463 20.2944 39.8717 22.7587C39.4971 25.2229 38.6551 27.5752 37.3457 29.8157C36.0364 32.0561 34.2908 33.9793 32.1091 35.5852Z" fill="white"/>
</svg>
