<svg width="20" height="20" viewBox="0 0 20 20" fill="none" xmlns="http://www.w3.org/2000/svg">
<path d="M0.796631 11V2.982C0.796631 2.381 1.01063 1.86659 1.43863 1.43875C1.86646 1.01075 2.38088 0.796753 2.98188 0.796753H9.04763V11H0.796631ZM10.9521 0.796753H17.0179C17.6189 0.796753 18.1333 1.01075 18.5611 1.43875C18.9891 1.86659 19.2031 2.381 19.2031 2.982V7.08975H10.9521V0.796753ZM10.9521 19.2033V9H19.2031V17.018C19.2031 17.619 18.9891 18.1334 18.5611 18.5613C18.1333 18.9893 17.6189 19.2033 17.0179 19.2033H10.9521ZM0.796631 12.9103H9.04763V19.2033H2.98188C2.38088 19.2033 1.86646 18.9893 1.43863 18.5613C1.01063 18.1334 0.796631 17.619 0.796631 17.018V12.9103ZM2.98188 8.81475H6.86238V2.982H2.98188V8.81475ZM13.1374 4.91025H17.0179V2.982H13.1374V4.91025ZM13.1374 11.1853V17.018H17.0179V11.1853H13.1374ZM2.98188 15.0898V17.018H6.86238V15.0898H2.98188Z" fill="#fff"/>
</svg>