<svg width="22" height="24" viewBox="0 0 22 24" fill="none" xmlns="http://www.w3.org/2000/svg">
<path d="M2.91698 23.9038C2.18237 23.9038 1.55636 23.6451 1.03894 23.1276C0.521526 22.6102 0.262817 21.9842 0.262817 21.2496V5.08369C0.262817 4.34908 0.521526 3.72307 1.03894 3.20565C1.55636 2.68823 2.18237 2.42952 2.91698 2.42952H3.99994V0.0961914H6.49369V2.42952H15.5062V0.0961914H17.9999V2.42952H19.0829C19.8175 2.42952 20.4435 2.68823 20.9609 3.20565C21.4784 3.72307 21.7371 4.34908 21.7371 5.08369V21.2496C21.7371 21.9842 21.4784 22.6102 20.9609 23.1276C20.4435 23.6451 19.8175 23.9038 19.0829 23.9038H2.91698ZM2.91698 21.2496H19.0829V9.66665H2.91698V21.2496ZM2.91698 7.33332H19.0829V5.08369H2.91698V7.33332ZM10.9999 14.389C10.6536 14.389 10.3633 14.2719 10.129 14.0376C9.89472 13.8033 9.77757 13.513 9.77757 13.1666C9.77757 12.8203 9.89472 12.53 10.129 12.2957C10.3633 12.0614 10.6536 11.9443 10.9999 11.9443C11.3462 11.9443 11.6366 12.0614 11.8709 12.2957C12.1052 12.53 12.2223 12.8203 12.2223 13.1666C12.2223 13.513 12.1052 13.8033 11.8709 14.0376C11.6366 14.2719 11.3462 14.389 10.9999 14.389ZM6.33328 14.389C5.98697 14.389 5.69667 14.2719 5.46236 14.0376C5.22805 13.8033 5.1109 13.513 5.1109 13.1666C5.1109 12.8203 5.22805 12.53 5.46236 12.2957C5.69667 12.0614 5.98697 11.9443 6.33328 11.9443C6.67958 11.9443 6.96989 12.0614 7.20419 12.2957C7.4385 12.53 7.55565 12.8203 7.55565 13.1666C7.55565 13.513 7.4385 13.8033 7.20419 14.0376C6.96989 14.2719 6.67958 14.389 6.33328 14.389ZM15.6666 14.389C15.3267 14.389 15.038 14.2719 14.8004 14.0376C14.5629 13.8033 14.4442 13.513 14.4442 13.1666C14.4442 12.8203 14.5629 12.53 14.8004 12.2957C15.038 12.0614 15.3279 11.9443 15.6701 11.9443C16.0123 11.9443 16.3011 12.0614 16.5364 12.2957C16.7714 12.53 16.889 12.8203 16.889 13.1666C16.889 13.513 16.7718 13.8033 16.5375 14.0376C16.3032 14.2719 16.0129 14.389 15.6666 14.389ZM10.9999 19.0557C10.6536 19.0557 10.3633 18.937 10.129 18.6996C9.89472 18.462 9.77757 18.172 9.77757 17.8298C9.77757 17.4876 9.89472 17.1988 10.129 16.9636C10.3633 16.7285 10.6536 16.6109 10.9999 16.6109C11.3462 16.6109 11.6366 16.7281 11.8709 16.9624C12.1052 17.1967 12.2223 17.487 12.2223 17.8333C12.2223 18.1732 12.1052 18.462 11.8709 18.6996C11.6366 18.937 11.3462 19.0557 10.9999 19.0557ZM6.33328 19.0557C5.98697 19.0557 5.69667 18.937 5.46236 18.6996C5.22805 18.462 5.1109 18.172 5.1109 17.8298C5.1109 17.4876 5.22805 17.1988 5.46236 16.9636C5.69667 16.7285 5.98697 16.6109 6.33328 16.6109C6.67958 16.6109 6.96989 16.7281 7.20419 16.9624C7.4385 17.1967 7.55565 17.487 7.55565 17.8333C7.55565 18.1732 7.4385 18.462 7.20419 18.6996C6.96989 18.937 6.67958 19.0557 6.33328 19.0557ZM15.6666 19.0557C15.3267 19.0557 15.038 18.937 14.8004 18.6996C14.5629 18.462 14.4442 18.172 14.4442 17.8298C14.4442 17.4876 14.5629 17.1988 14.8004 16.9636C15.038 16.7285 15.3279 16.6109 15.6701 16.6109C16.0123 16.6109 16.3011 16.7281 16.5364 16.9624C16.7714 17.1967 16.889 17.487 16.889 17.8333C16.889 18.1732 16.7718 18.462 16.5375 18.6996C16.3032 18.937 16.0129 19.0557 15.6666 19.0557Z" fill="white"/>
</svg>
