<svg width="20" height="18" viewBox="0 0 20 18" fill="none" xmlns="http://www.w3.org/2000/svg">

<path d="M9.04894 0.740895C9.3483 -0.180416 10.6517 -0.180417 10.9511 0.740893L12.4697 5.41466C12.6035 5.82668 12.9875 6.10564 13.4207 6.10564H18.335C19.3037 6.10564 19.7065 7.34525 18.9228 7.91466L14.947 10.8032C14.5966 11.0578 14.4499 11.5092 14.5838 11.9212L16.1024 16.595C16.4017 17.5163 15.3472 18.2824 14.5635 17.713L10.5878 14.8245C10.2373 14.5698 9.7627 14.5698 9.41221 14.8245L5.43648 17.713C4.65276 18.2824 3.59828 17.5163 3.89763 16.595L5.41623 11.9212C5.55011 11.5092 5.40345 11.0578 5.05296 10.8032L1.07722 7.91466C0.293507 7.34525 0.696283 6.10564 1.66501 6.10564H6.57929C7.01252 6.10564 7.39647 5.82668 7.53035 5.41466L9.04894 0.740895Z" fill="black"/>

</svg>